{
	"patcher" : 	{
		"fileversion" : 1,
		"appversion" : 		{
			"major" : 7,
			"minor" : 3,
			"revision" : 5,
			"architecture" : "x64",
			"modernui" : 1
		}
,
		"rect" : [ 54.0, 83.0, 771.0, 284.0 ],
		"bgcolor" : [ 0.878431, 0.878431, 0.858824, 1.0 ],
		"editing_bgcolor" : [ 0.878431, 0.878431, 0.858824, 1.0 ],
		"bglocked" : 0,
		"openinpresentation" : 1,
		"default_fontsize" : 12.0,
		"default_fontface" : 0,
		"default_fontname" : "Arial",
		"gridonopen" : 2,
		"gridsize" : [ 20.0, 20.0 ],
		"gridsnaponopen" : 1,
		"objectsnaponopen" : 1,
		"statusbarvisible" : 2,
		"toolbarvisible" : 1,
		"lefttoolbarpinned" : 0,
		"toptoolbarpinned" : 0,
		"righttoolbarpinned" : 0,
		"bottomtoolbarpinned" : 0,
		"toolbars_unpinned_last_save" : 0,
		"tallnewobj" : 0,
		"boxanimatetime" : 200,
		"enablehscroll" : 1,
		"enablevscroll" : 1,
		"devicewidth" : 0.0,
		"description" : "",
		"digest" : "",
		"tags" : "",
		"style" : "",
		"subpatcher_template" : "Green on Black",
		"boxes" : [ 			{
				"box" : 				{
					"angle" : 270.0,
					"bgcolor" : [ 0.290196, 0.309804, 0.301961, 0.0 ],
					"border" : 1,
					"bordercolor" : [ 0.65098, 0.666667, 0.662745, 1.0 ],
					"id" : "obj-49",
					"maxclass" : "panel",
					"mode" : 0,
					"numinlets" : 1,
					"numoutlets" : 0,
					"patching_rect" : [ 48.483337, 52.600006, 128.0, 128.0 ],
					"presentation" : 1,
					"presentation_rect" : [ 49.483337, 3.100006, 183.0, 89.75 ],
					"proportion" : 0.39,
					"style" : ""
				}

			}
, 			{
				"box" : 				{
					"angle" : 270.0,
					"bgcolor" : [ 0.290196, 0.309804, 0.301961, 0.0 ],
					"border" : 1,
					"bordercolor" : [ 0.65098, 0.666667, 0.662745, 1.0 ],
					"id" : "obj-47",
					"maxclass" : "panel",
					"mode" : 0,
					"numinlets" : 1,
					"numoutlets" : 0,
					"patching_rect" : [ 395.983337, 2.999987, 128.0, 128.0 ],
					"presentation" : 1,
					"presentation_rect" : [ 387.983337, 2.999987, 85.5, 39.100018 ],
					"proportion" : 0.39,
					"style" : ""
				}

			}
, 			{
				"box" : 				{
					"angle" : 270.0,
					"bgcolor" : [ 0.290196, 0.309804, 0.301961, 0.0 ],
					"border" : 1,
					"bordercolor" : [ 0.65098, 0.666667, 0.662745, 1.0 ],
					"id" : "obj-46",
					"maxclass" : "panel",
					"mode" : 0,
					"numinlets" : 1,
					"numoutlets" : 0,
					"patching_rect" : [ 396.483337, 49.100006, 128.0, 128.0 ],
					"presentation" : 1,
					"presentation_rect" : [ 388.483337, 49.100006, 85.5, 43.75 ],
					"proportion" : 0.39,
					"style" : ""
				}

			}
, 			{
				"box" : 				{
					"angle" : 270.0,
					"bgcolor" : [ 0.290196, 0.309804, 0.301961, 0.0 ],
					"border" : 1,
					"bordercolor" : [ 0.65098, 0.666667, 0.662745, 1.0 ],
					"id" : "obj-45",
					"maxclass" : "panel",
					"mode" : 0,
					"numinlets" : 1,
					"numoutlets" : 0,
					"patching_rect" : [ 250.483337, 49.499989, 128.0, 128.0 ],
					"presentation" : 1,
					"presentation_rect" : [ 240.983337, 49.100006, 141.0, 43.75 ],
					"proportion" : 0.39,
					"style" : ""
				}

			}
, 			{
				"box" : 				{
					"angle" : 270.0,
					"bgcolor" : [ 0.290196, 0.309804, 0.301961, 0.0 ],
					"border" : 1,
					"bordercolor" : [ 0.65098, 0.666667, 0.662745, 1.0 ],
					"id" : "obj-35",
					"maxclass" : "panel",
					"mode" : 0,
					"numinlets" : 1,
					"numoutlets" : 0,
					"patching_rect" : [ 251.650024, 4.999987, 128.0, 128.0 ],
					"presentation" : 1,
					"presentation_rect" : [ 240.983337, 2.999987, 141.0, 39.100018 ],
					"proportion" : 0.39,
					"style" : ""
				}

			}
, 			{
				"box" : 				{
					"id" : "obj-19",
					"maxclass" : "comment",
					"numinlets" : 1,
					"numoutlets" : 0,
					"patching_rect" : [ 306.5, 62.100006, 38.0, 20.0 ],
					"presentation" : 1,
					"presentation_rect" : [ 352.166656, 1.433327, 22.0, 20.0 ],
					"style" : "",
					"text" : "4",
					"textjustification" : 1
				}

			}
, 			{
				"box" : 				{
					"id" : "obj-18",
					"maxclass" : "comment",
					"numinlets" : 1,
					"numoutlets" : 0,
					"patching_rect" : [ 278.833313, 60.100006, 38.0, 20.0 ],
					"presentation" : 1,
					"presentation_rect" : [ 333.833313, 1.433327, 22.0, 20.0 ],
					"style" : "",
					"text" : "3",
					"textjustification" : 1
				}

			}
, 			{
				"box" : 				{
					"id" : "obj-16",
					"maxclass" : "comment",
					"numinlets" : 1,
					"numoutlets" : 0,
					"patching_rect" : [ 244.333328, 60.766674, 38.0, 20.0 ],
					"presentation" : 1,
					"presentation_rect" : [ 313.5, 1.433327, 22.0, 20.0 ],
					"style" : "",
					"text" : "2",
					"textjustification" : 1
				}

			}
, 			{
				"box" : 				{
					"id" : "obj-11",
					"maxclass" : "comment",
					"numinlets" : 1,
					"numoutlets" : 0,
					"patching_rect" : [ 214.591461, 70.100006, 38.0, 20.0 ],
					"presentation" : 1,
					"presentation_rect" : [ 293.666656, 1.433327, 22.0, 20.0 ],
					"style" : "",
					"text" : "1",
					"textjustification" : 1
				}

			}
, 			{
				"box" : 				{
					"id" : "obj-7",
					"maxclass" : "newobj",
					"numinlets" : 0,
					"numoutlets" : 1,
					"outlettype" : [ "" ],
					"patching_rect" : [ 410.343842, 183.0, 303.0, 22.0 ],
					"style" : "",
					"text" : "r sysX.phrasebook.gen_rand.refresh_dynprofiles"
				}

			}
, 			{
				"box" : 				{
					"fontsize" : 12.0,
					"id" : "obj-41",
					"maxclass" : "comment",
					"numinlets" : 1,
					"numoutlets" : 0,
					"patching_rect" : [ 417.343842, 306.0, 64.0, 20.0 ],
					"presentation" : 1,
					"presentation_rect" : [ 398.620941, 49.100002, 64.0, 20.0 ],
					"style" : "",
					"text" : "dynprofile",
					"textjustification" : 2
				}

			}
, 			{
				"box" : 				{
					"allowdrag" : 0,
					"id" : "obj-40",
					"items" : [ "cresc", ",", "dim", ",", "crescdim", ",", "dimcresc", ",", "dimcresc2", ",", "dimcresc4", ",", "crescdim2", ",", "crescdim4", ",", "cresc2", ",", "dim2", ",", "rand1", ",", "rand2", ",", "rand3", ",", "rand4", ",", "rand5", ",", "rand6", ",", "pp", ",", "p", ",", "mf", ",", "f", ",", "ff", ",", "ff+", ",", "fpfp", ",", "pfpf", ",", "pf", ",", "fp", ",", "rand1inv", ",", "rand2inv", ",", "rand3inv", ",", "rand4inv", ",", "rand5inv", ",", "rand6inv" ],
					"maxclass" : "umenu",
					"numinlets" : 1,
					"numoutlets" : 3,
					"outlettype" : [ "int", "", "" ],
					"parameter_enable" : 0,
					"patching_rect" : [ 410.343842, 329.5, 100.0, 22.0 ],
					"pattrmode" : 1,
					"presentation" : 1,
					"presentation_rect" : [ 391.033386, 66.100006, 79.0, 22.0 ],
					"style" : "",
					"varname" : "dynprofile"
				}

			}
, 			{
				"box" : 				{
					"id" : "obj-39",
					"maxclass" : "newobj",
					"numinlets" : 1,
					"numoutlets" : 1,
					"outlettype" : [ "" ],
					"patcher" : 					{
						"fileversion" : 1,
						"appversion" : 						{
							"major" : 7,
							"minor" : 3,
							"revision" : 5,
							"architecture" : "x64",
							"modernui" : 1
						}
,
						"rect" : [ 59.0, 104.0, 640.0, 480.0 ],
						"bgcolor" : [ 0.0, 0.0, 0.0, 1.0 ],
						"editing_bgcolor" : [ 0.046123, 0.046121, 0.046122, 1.0 ],
						"bglocked" : 0,
						"openinpresentation" : 0,
						"default_fontsize" : 14.0,
						"default_fontface" : 0,
						"default_fontname" : "Lato Regular",
						"gridonopen" : 2,
						"gridsize" : [ 20.0, 20.0 ],
						"gridsnaponopen" : 1,
						"objectsnaponopen" : 1,
						"statusbarvisible" : 2,
						"toolbarvisible" : 1,
						"lefttoolbarpinned" : 0,
						"toptoolbarpinned" : 0,
						"righttoolbarpinned" : 0,
						"bottomtoolbarpinned" : 0,
						"toolbars_unpinned_last_save" : 0,
						"tallnewobj" : 0,
						"boxanimatetime" : 200,
						"enablehscroll" : 1,
						"enablevscroll" : 1,
						"devicewidth" : 0.0,
						"description" : "",
						"digest" : "",
						"tags" : "",
						"style" : "zielony",
						"subpatcher_template" : "Green on Black",
						"boxes" : [ 							{
								"box" : 								{
									"id" : "obj-2",
									"maxclass" : "newobj",
									"numinlets" : 1,
									"numoutlets" : 2,
									"outlettype" : [ "dump", "clear" ],
									"patching_rect" : [ 50.0, 85.0, 274.0, 25.0 ],
									"style" : "",
									"text" : "t dump clear"
								}

							}
, 							{
								"box" : 								{
									"id" : "obj-5",
									"maxclass" : "newobj",
									"numinlets" : 2,
									"numoutlets" : 2,
									"outlettype" : [ "", "" ],
									"patching_rect" : [ 88.666687, 186.0, 91.0, 25.0 ],
									"style" : "",
									"text" : "route symbol"
								}

							}
, 							{
								"box" : 								{
									"id" : "obj-4",
									"maxclass" : "newobj",
									"numinlets" : 1,
									"numoutlets" : 1,
									"outlettype" : [ "" ],
									"patching_rect" : [ 88.666687, 222.0, 111.0, 25.0 ],
									"style" : "",
									"text" : "prepend append"
								}

							}
, 							{
								"box" : 								{
									"color" : [ 0.466667, 0.254902, 0.607843, 1.0 ],
									"id" : "obj-1",
									"maxclass" : "newobj",
									"numinlets" : 1,
									"numoutlets" : 4,
									"outlettype" : [ "", "", "", "" ],
									"patching_rect" : [ 50.0, 141.0, 135.0, 25.0 ],
									"saved_object_attributes" : 									{
										"embed" : 0
									}
,
									"style" : "",
									"text" : "coll sysX.dynprofiles"
								}

							}
, 							{
								"box" : 								{
									"comment" : "",
									"id" : "obj-49",
									"index" : 1,
									"maxclass" : "inlet",
									"numinlets" : 0,
									"numoutlets" : 1,
									"outlettype" : [ "bang" ],
									"patching_rect" : [ 50.0, 40.0, 30.0, 30.0 ],
									"style" : ""
								}

							}
, 							{
								"box" : 								{
									"comment" : "",
									"id" : "obj-50",
									"index" : 1,
									"maxclass" : "outlet",
									"numinlets" : 1,
									"numoutlets" : 0,
									"patching_rect" : [ 88.666687, 307.0, 30.0, 30.0 ],
									"style" : ""
								}

							}
 ],
						"lines" : [ 							{
								"patchline" : 								{
									"destination" : [ "obj-5", 0 ],
									"source" : [ "obj-1", 1 ]
								}

							}
, 							{
								"patchline" : 								{
									"destination" : [ "obj-1", 0 ],
									"source" : [ "obj-2", 0 ]
								}

							}
, 							{
								"patchline" : 								{
									"destination" : [ "obj-50", 0 ],
									"midpoints" : [ 314.5, 281.0, 98.166687, 281.0 ],
									"source" : [ "obj-2", 1 ]
								}

							}
, 							{
								"patchline" : 								{
									"destination" : [ "obj-50", 0 ],
									"source" : [ "obj-4", 0 ]
								}

							}
, 							{
								"patchline" : 								{
									"destination" : [ "obj-2", 0 ],
									"source" : [ "obj-49", 0 ]
								}

							}
, 							{
								"patchline" : 								{
									"destination" : [ "obj-4", 0 ],
									"source" : [ "obj-5", 0 ]
								}

							}
 ],
						"styles" : [ 							{
								"name" : "ak.bigger",
								"default" : 								{
									"fontname" : [ "Lato" ],
									"bgfillcolor" : 									{
										"type" : "gradient",
										"color" : [ 0.290196, 0.309804, 0.301961, 1.0 ],
										"color1" : [ 0.580992, 0.600466, 0.396627, 1.0 ],
										"color2" : [ 0.326279, 0.337174, 0.223978, 1.0 ],
										"angle" : 277.842322,
										"proportion" : 0.484956,
										"autogradient" : 0,
										"pt1" : [ 0.485149, 0.026087 ],
										"pt2" : [ 0.559406, 0.565217 ]
									}
,
									"selectioncolor" : [ 0.532195, 0.84546, 0.169658, 1.0 ],
									"color" : [ 0.860949, 0.86278, 0.710083, 1.0 ],
									"textcolor_inverse" : [ 0.959262, 0.956712, 0.966038, 1.0 ],
									"fontsize" : [ 14.0 ],
									"elementcolor" : [ 0.402827, 0.442342, 0.446734, 1.0 ]
								}
,
								"parentstyle" : "",
								"multi" : 0
							}
, 							{
								"name" : "zielony",
								"default" : 								{
									"fontname" : [ "Lato Regular" ],
									"bgfillcolor" : 									{
										"type" : "color",
										"color" : [ 0.067387, 0.339963, 0.132708, 1.0 ],
										"color1" : [ 0.0, 0.501961, 0.25098, 1.0 ],
										"color2" : [ 0.019608, 0.254902, 0.035294, 1.0 ],
										"angle" : 268.517703,
										"proportion" : 0.525821,
										"autogradient" : 0,
										"pt1" : [ 0.490099, 0.478261 ],
										"pt2" : [ 0.475248, 1.052174 ]
									}
,
									"textcolor" : [ 0.0, 0.533333, 0.168627, 1.0 ],
									"selectioncolor" : [ 0.528927, 1.0, 0.272898, 1.0 ],
									"bgcolor" : [ 0.178182, 0.194235, 0.179854, 1.0 ],
									"color" : [ 0.4, 1.0, 0.4, 1.0 ],
									"textjustification" : [ 0 ],
									"textcolor_inverse" : [ 0.528927, 1.0, 0.272898, 1.0 ],
									"patchlinecolor" : [ 0.439216, 0.74902, 0.254902, 0.9 ],
									"fontface" : [ 0 ],
									"fontsize" : [ 14.0 ],
									"accentcolor" : [ 0.086281, 0.464155, 0.176596, 1.0 ],
									"elementcolor" : [ 0.03764, 0.288409, 0.132402, 1.0 ]
								}
,
								"parentstyle" : "",
								"multi" : 0
							}
 ],
						"toolbarexclusions" : [ "lessonbrowser", "browser_objects", "packagemanager", "omnibrowser", "object_menu", "message_menu", "comment" ]
					}
,
					"patching_rect" : [ 410.343842, 269.5, 65.0, 22.0 ],
					"saved_object_attributes" : 					{
						"description" : "",
						"digest" : "",
						"globalpatchername" : "",
						"style" : "zielony",
						"tags" : ""
					}
,
					"style" : "",
					"text" : "p refresh"
				}

			}
, 			{
				"box" : 				{
					"id" : "obj-48",
					"maxclass" : "button",
					"numinlets" : 1,
					"numoutlets" : 1,
					"outlettype" : [ "bang" ],
					"outlinecolor" : [ 0.372549, 0.196078, 0.486275, 1.0 ],
					"patching_rect" : [ 410.343842, 217.43335, 42.0, 42.0 ],
					"style" : ""
				}

			}
, 			{
				"box" : 				{
					"id" : "obj-32",
					"maxclass" : "toggle",
					"numinlets" : 1,
					"numoutlets" : 1,
					"outlettype" : [ "int" ],
					"parameter_enable" : 0,
					"patching_rect" : [ 112.28833, 244.766693, 24.0, 24.0 ],
					"presentation" : 1,
					"presentation_rect" : [ 440.870941, 11.100006, 24.0, 24.0 ],
					"style" : "",
					"varname" : "a-moll"
				}

			}
, 			{
				"box" : 				{
					"fontsize" : 12.0,
					"id" : "obj-28",
					"maxclass" : "comment",
					"numinlets" : 1,
					"numoutlets" : 0,
					"patching_rect" : [ 103.78833, 217.43335, 43.0, 20.0 ],
					"presentation" : 1,
					"presentation_rect" : [ 396.283386, 13.100006, 43.0, 20.0 ],
					"style" : "",
					"text" : "a-moll",
					"textjustification" : 1
				}

			}
, 			{
				"box" : 				{
					"fontsize" : 12.0,
					"id" : "obj-70",
					"maxclass" : "comment",
					"numinlets" : 1,
					"numoutlets" : 0,
					"patching_rect" : [ 288.666626, 266.600037, 94.0, 20.0 ],
					"presentation" : 1,
					"presentation_rect" : [ 489.787598, 51.266678, 94.0, 20.0 ],
					"style" : "",
					"text" : "articulation text",
					"textjustification" : 2
				}

			}
, 			{
				"box" : 				{
					"fontsize" : 12.0,
					"id" : "obj-69",
					"maxclass" : "comment",
					"numinlets" : 1,
					"numoutlets" : 0,
					"patching_rect" : [ 288.666626, 206.666656, 68.0, 20.0 ],
					"presentation" : 1,
					"presentation_rect" : [ 515.787598, 22.499985, 68.0, 20.0 ],
					"style" : "",
					"text" : "tempo text",
					"textjustification" : 2
				}

			}
, 			{
				"box" : 				{
					"id" : "obj-66",
					"items" : [ ",", "legato", ",", "staccato", ",", "marcato", ",", "staccatissimo" ],
					"maxclass" : "umenu",
					"numinlets" : 1,
					"numoutlets" : 3,
					"outlettype" : [ "int", "", "" ],
					"parameter_enable" : 0,
					"patching_rect" : [ 288.666626, 294.600037, 100.0, 22.0 ],
					"pattrmode" : 1,
					"presentation" : 1,
					"presentation_rect" : [ 585.787659, 51.266678, 122.0, 22.0 ],
					"style" : "",
					"varname" : "text-art"
				}

			}
, 			{
				"box" : 				{
					"id" : "obj-65",
					"items" : [ ",", "Andante", ",", "Moderato", ",", "Allegro", ",", "Presto", ",", "accel.", ",", "rit." ],
					"maxclass" : "umenu",
					"numinlets" : 1,
					"numoutlets" : 3,
					"outlettype" : [ "int", "", "" ],
					"parameter_enable" : 0,
					"patching_rect" : [ 288.666626, 238.93335, 100.0, 22.0 ],
					"pattrmode" : 1,
					"presentation" : 1,
					"presentation_rect" : [ 585.787659, 22.499985, 122.0, 22.0 ],
					"style" : "",
					"varname" : "text-tempo"
				}

			}
, 			{
				"box" : 				{
					"fontsize" : 12.0,
					"id" : "obj-64",
					"maxclass" : "comment",
					"numinlets" : 1,
					"numoutlets" : 0,
					"patching_rect" : [ 238.0, 117.399994, 67.0, 20.0 ],
					"presentation" : 1,
					"presentation_rect" : [ 104.900024, 74.850006, 67.0, 20.0 ],
					"style" : "",
					"text" : "repetition?",
					"textcolor" : [ 0.572549, 0.27451, 0.027451, 1.0 ],
					"textjustification" : 1
				}

			}
, 			{
				"box" : 				{
					"checkedcolor" : [ 0.992435, 0.625528, 0.214662, 1.0 ],
					"id" : "obj-63",
					"maxclass" : "toggle",
					"numinlets" : 1,
					"numoutlets" : 1,
					"outlettype" : [ "int" ],
					"parameter_enable" : 0,
					"patching_rect" : [ 255.0, 143.0, 24.0, 24.0 ],
					"presentation" : 1,
					"presentation_rect" : [ 126.400024, 53.850006, 24.0, 24.0 ],
					"style" : "",
					"uncheckedcolor" : [ 0.572549, 0.27451, 0.027451, 1.0 ],
					"varname" : "rep"
				}

			}
, 			{
				"box" : 				{
					"fontsize" : 12.0,
					"format" : 6,
					"htricolor" : [ 0.952941, 0.564706, 0.098039, 1.0 ],
					"id" : "obj-61",
					"maxclass" : "flonum",
					"maximum" : 1.0,
					"minimum" : 0.0,
					"numinlets" : 1,
					"numoutlets" : 2,
					"outlettype" : [ "", "bang" ],
					"parameter_enable" : 0,
					"patching_rect" : [ 320.25528, 162.466644, 47.0, 22.0 ],
					"presentation" : 1,
					"presentation_rect" : [ 320.333313, 66.100006, 47.0, 22.0 ],
					"style" : "",
					"textcolor" : [ 0.98195, 0.560088, 0.167115, 1.0 ],
					"tricolor" : [ 0.572549, 0.27451, 0.027451, 1.0 ],
					"varname" : "t12var"
				}

			}
, 			{
				"box" : 				{
					"fontsize" : 12.0,
					"format" : 6,
					"id" : "obj-60",
					"maxclass" : "flonum",
					"maximum" : 1.0,
					"minimum" : 0.0,
					"numinlets" : 1,
					"numoutlets" : 2,
					"outlettype" : [ "", "bang" ],
					"parameter_enable" : 0,
					"patching_rect" : [ 174.310852, 117.399994, 47.0, 22.0 ],
					"presentation" : 1,
					"presentation_rect" : [ 114.900024, 24.350006, 47.0, 22.0 ],
					"style" : "",
					"varname" : "m1m2"
				}

			}
, 			{
				"box" : 				{
					"id" : "obj-30",
					"maxclass" : "newobj",
					"numinlets" : 3,
					"numoutlets" : 1,
					"outlettype" : [ "" ],
					"patching_rect" : [ 39.333374, 566.633362, 55.0, 22.0 ],
					"style" : "",
					"text" : "clip 1 4"
				}

			}
, 			{
				"box" : 				{
					"color" : [ 0.086275, 0.309804, 0.52549, 1.0 ],
					"id" : "obj-24",
					"maxclass" : "newobj",
					"numinlets" : 1,
					"numoutlets" : 3,
					"outlettype" : [ "", "", "" ],
					"patching_rect" : [ 39.083374, 466.0, 207.0, 22.0 ],
					"restore" : [ 1 ],
					"saved_object_attributes" : 					{
						"parameter_enable" : 0
					}
,
					"style" : "",
					"text" : "pattr instr @default_interp none",
					"textcolor" : [ 0.317647, 0.654902, 0.976471, 1.0 ],
					"varname" : "instr"
				}

			}
, 			{
				"box" : 				{
					"fontsize" : 12.0,
					"format" : 6,
					"id" : "obj-57",
					"maxclass" : "flonum",
					"maximum" : 1.0,
					"minimum" : -1.0,
					"numinlets" : 1,
					"numoutlets" : 2,
					"outlettype" : [ "", "bang" ],
					"parameter_enable" : 0,
					"patching_rect" : [ 320.25528, 102.766663, 47.0, 22.0 ],
					"presentation" : 1,
					"presentation_rect" : [ 259.0, 66.100006, 47.0, 22.0 ],
					"style" : "",
					"varname" : "t12"
				}

			}
, 			{
				"box" : 				{
					"fontsize" : 12.0,
					"id" : "obj-55",
					"maxclass" : "comment",
					"numinlets" : 1,
					"numoutlets" : 0,
					"patching_rect" : [ 316.25528, 136.233307, 55.0, 20.0 ],
					"presentation" : 1,
					"presentation_rect" : [ 321.333313, 49.100002, 45.0, 20.0 ],
					"style" : "",
					"text" : "t12var",
					"textcolor" : [ 0.572549, 0.27451, 0.027451, 1.0 ],
					"textjustification" : 1
				}

			}
, 			{
				"box" : 				{
					"id" : "obj-54",
					"maxclass" : "comment",
					"numinlets" : 1,
					"numoutlets" : 0,
					"patching_rect" : [ 379.25528, 584.099976, 22.0, 20.0 ],
					"presentation" : 1,
					"presentation_rect" : [ 352.166656, 17.100006, 23.0, 20.0 ],
					"style" : "",
					"text" : "vc",
					"textjustification" : 1
				}

			}
, 			{
				"box" : 				{
					"id" : "obj-53",
					"maxclass" : "comment",
					"numinlets" : 1,
					"numoutlets" : 0,
					"patching_rect" : [ 348.75528, 584.099976, 25.0, 20.0 ],
					"presentation" : 1,
					"presentation_rect" : [ 332.333313, 17.100006, 25.0, 20.0 ],
					"style" : "",
					"text" : "vn",
					"textjustification" : 1
				}

			}
, 			{
				"box" : 				{
					"id" : "obj-52",
					"maxclass" : "comment",
					"numinlets" : 1,
					"numoutlets" : 0,
					"patching_rect" : [ 323.75528, 584.099976, 22.0, 20.0 ],
					"presentation" : 1,
					"presentation_rect" : [ 313.5, 17.100006, 22.0, 20.0 ],
					"style" : "",
					"text" : "cl",
					"textjustification" : 1
				}

			}
, 			{
				"box" : 				{
					"id" : "obj-51",
					"maxclass" : "comment",
					"numinlets" : 1,
					"numoutlets" : 0,
					"patching_rect" : [ 302.75528, 584.099976, 22.0, 20.0 ],
					"presentation" : 1,
					"presentation_rect" : [ 294.666656, 17.100006, 22.0, 20.0 ],
					"style" : "",
					"text" : "fl",
					"textjustification" : 1
				}

			}
, 			{
				"box" : 				{
					"id" : "obj-44",
					"maxclass" : "newobj",
					"numinlets" : 1,
					"numoutlets" : 1,
					"outlettype" : [ "" ],
					"patching_rect" : [ 39.333374, 597.666687, 138.0, 22.0 ],
					"style" : "",
					"text" : "expr pow(2\\, (4 - $i1))"
				}

			}
, 			{
				"box" : 				{
					"id" : "obj-42",
					"maxclass" : "newobj",
					"numinlets" : 1,
					"numoutlets" : 2,
					"outlettype" : [ "int", "bang" ],
					"patching_rect" : [ 39.083374, 501.93335, 117.383118, 22.0 ],
					"style" : "",
					"text" : "t i b"
				}

			}
, 			{
				"box" : 				{
					"id" : "obj-38",
					"maxclass" : "newobj",
					"numinlets" : 2,
					"numoutlets" : 1,
					"outlettype" : [ "" ],
					"patching_rect" : [ 288.666626, 501.93335, 87.0, 22.0 ],
					"style" : "",
					"text" : "ak.dec2bin 4"
				}

			}
, 			{
				"box" : 				{
					"color" : [ 0.086275, 0.309804, 0.52549, 1.0 ],
					"id" : "obj-37",
					"maxclass" : "newobj",
					"numinlets" : 1,
					"numoutlets" : 3,
					"outlettype" : [ "", "", "" ],
					"patching_rect" : [ 288.666626, 466.0, 202.0, 22.0 ],
					"restore" : [ 8 ],
					"saved_object_attributes" : 					{
						"parameter_enable" : 0
					}
,
					"style" : "",
					"text" : "pattr instrset @default_interp 0",
					"textcolor" : [ 0.317647, 0.654902, 0.976471, 1.0 ],
					"varname" : "instrset"
				}

			}
, 			{
				"box" : 				{
					"id" : "obj-36",
					"linecount" : 2,
					"maxclass" : "message",
					"numinlets" : 2,
					"numoutlets" : 1,
					"outlettype" : [ "" ],
					"patching_rect" : [ 288.666626, 533.43335, 95.0, 35.0 ],
					"style" : "",
					"text" : "0 0 $1 1 0 $2 2 0 $3 3 0 $4"
				}

			}
, 			{
				"box" : 				{
					"id" : "obj-43",
					"maxclass" : "newobj",
					"numinlets" : 1,
					"numoutlets" : 1,
					"outlettype" : [ "bang" ],
					"patching_rect" : [ 218.333374, 612.599976, 26.0, 22.0 ],
					"style" : "",
					"text" : "t b"
				}

			}
, 			{
				"box" : 				{
					"id" : "obj-31",
					"maxclass" : "newobj",
					"numinlets" : 1,
					"numoutlets" : 1,
					"outlettype" : [ "int" ],
					"patching_rect" : [ 263.333374, 612.599976, 75.0, 22.0 ],
					"style" : "",
					"text" : "ak.bin2dec"
				}

			}
, 			{
				"box" : 				{
					"columns" : 4,
					"horizontalmargin" : 0,
					"id" : "obj-21",
					"maxclass" : "matrixctrl",
					"numinlets" : 1,
					"numoutlets" : 2,
					"outlettype" : [ "list", "list" ],
					"parameter_enable" : 0,
					"patching_rect" : [ 218.333374, 586.599976, 64.0, 18.0 ],
					"presentation" : 1,
					"presentation_rect" : [ 295.666656, 15.666649, 77.5, 21.433357 ],
					"rows" : 1,
					"style" : ""
				}

			}
, 			{
				"box" : 				{
					"id" : "obj-29",
					"maxclass" : "message",
					"numinlets" : 2,
					"numoutlets" : 1,
					"outlettype" : [ "" ],
					"patching_rect" : [ 218.333374, 549.333313, 63.0, 22.0 ],
					"style" : "",
					"text" : "getrow 0"
				}

			}
, 			{
				"box" : 				{
					"fontsize" : 12.0,
					"id" : "obj-17",
					"maxclass" : "comment",
					"numinlets" : 1,
					"numoutlets" : 0,
					"patching_rect" : [ 174.310852, 183.0, 51.0, 20.0 ],
					"presentation" : 1,
					"presentation_rect" : [ 112.900024, 6.100006, 51.0, 20.0 ],
					"style" : "",
					"text" : "m1-m2",
					"textjustification" : 1
				}

			}
, 			{
				"box" : 				{
					"fontsize" : 12.0,
					"id" : "obj-8",
					"maxclass" : "comment",
					"numinlets" : 1,
					"numoutlets" : 0,
					"patching_rect" : [ 107.432648, 129.166656, 44.0, 20.0 ],
					"presentation" : 1,
					"presentation_rect" : [ 182.400024, 45.180008, 44.0, 20.0 ],
					"style" : "",
					"text" : "m2var",
					"textcolor" : [ 0.572549, 0.27451, 0.027451, 1.0 ],
					"textjustification" : 1
				}

			}
, 			{
				"box" : 				{
					"fontsize" : 12.0,
					"id" : "obj-10",
					"maxclass" : "comment",
					"numinlets" : 1,
					"numoutlets" : 0,
					"patching_rect" : [ 112.632355, 75.166656, 45.0, 20.0 ],
					"presentation" : 1,
					"presentation_rect" : [ 182.400024, 5.600006, 45.0, 20.0 ],
					"style" : "",
					"text" : "m2",
					"textjustification" : 1
				}

			}
, 			{
				"box" : 				{
					"fontsize" : 12.0,
					"htricolor" : [ 0.952941, 0.564706, 0.098039, 1.0 ],
					"id" : "obj-14",
					"maxclass" : "number",
					"maximum" : 19,
					"minimum" : 1,
					"numinlets" : 1,
					"numoutlets" : 2,
					"outlettype" : [ "", "bang" ],
					"parameter_enable" : 0,
					"patching_rect" : [ 102.533051, 156.766663, 46.0, 22.0 ],
					"presentation" : 1,
					"presentation_rect" : [ 187.400024, 61.350006, 32.0, 22.0 ],
					"style" : "",
					"textcolor" : [ 0.992435, 0.625528, 0.214662, 1.0 ],
					"tricolor" : [ 0.572549, 0.27451, 0.027451, 1.0 ],
					"varname" : "m2var"
				}

			}
, 			{
				"box" : 				{
					"fontsize" : 12.0,
					"id" : "obj-15",
					"maxclass" : "number",
					"maximum" : 19,
					"minimum" : 1,
					"numinlets" : 1,
					"numoutlets" : 2,
					"outlettype" : [ "", "bang" ],
					"parameter_enable" : 0,
					"patching_rect" : [ 107.432648, 102.766663, 46.0, 22.0 ],
					"presentation" : 1,
					"presentation_rect" : [ 187.400024, 23.100006, 32.0, 22.0 ],
					"style" : "",
					"varname" : "m2"
				}

			}
, 			{
				"box" : 				{
					"color" : [ 0.086275, 0.309804, 0.52549, 1.0 ],
					"id" : "obj-13",
					"maxclass" : "newobj",
					"numinlets" : 1,
					"numoutlets" : 4,
					"outlettype" : [ "", "", "", "" ],
					"patching_rect" : [ 29.977478, 14.800018, 68.0, 22.0 ],
					"restore" : 					{
						"a-moll" : [ 0 ],
						"dynprofile" : [ "crescdim2" ],
						"m1" : [ 1 ],
						"m1m2" : [ 0.51 ],
						"m1var" : [ 2 ],
						"m2" : [ 19 ],
						"m2var" : [ 1 ],
						"rep" : [ 0 ],
						"t12" : [ 0.0 ],
						"t12var" : [ 0.0 ],
						"text-art" : [ "legato" ],
						"text-tempo" : [ "Andante" ]
					}
,
					"style" : "",
					"text" : "autopattr",
					"textcolor" : [ 0.317647, 0.654902, 0.976471, 1.0 ],
					"varname" : "u912007691"
				}

			}
, 			{
				"box" : 				{
					"id" : "obj-12",
					"maxclass" : "newobj",
					"numinlets" : 1,
					"numoutlets" : 1,
					"outlettype" : [ "" ],
					"patching_rect" : [ 557.333374, 491.0, 82.0, 22.0 ],
					"style" : "",
					"text" : "prepend set"
				}

			}
, 			{
				"box" : 				{
					"id" : "obj-9",
					"maxclass" : "button",
					"numinlets" : 1,
					"numoutlets" : 1,
					"outlettype" : [ "bang" ],
					"patching_rect" : [ 11.333374, 432.333313, 24.0, 24.0 ],
					"style" : ""
				}

			}
, 			{
				"box" : 				{
					"id" : "obj-6",
					"maxclass" : "newobj",
					"numinlets" : 2,
					"numoutlets" : 1,
					"outlettype" : [ "int" ],
					"patching_rect" : [ 557.333374, 432.333313, 29.5, 22.0 ],
					"style" : "",
					"text" : "- 1"
				}

			}
, 			{
				"box" : 				{
					"id" : "obj-5",
					"maxclass" : "newobj",
					"numinlets" : 1,
					"numoutlets" : 2,
					"outlettype" : [ "int", "int" ],
					"patching_rect" : [ 39.083374, 377.166656, 537.25, 22.0 ],
					"style" : "",
					"text" : "t i i"
				}

			}
, 			{
				"box" : 				{
					"id" : "obj-4",
					"maxclass" : "newobj",
					"numinlets" : 2,
					"numoutlets" : 2,
					"outlettype" : [ "", "" ],
					"patching_rect" : [ 557.333374, 460.666656, 125.0, 22.0 ],
					"style" : "",
					"text" : "zl lookup fl cl vn vc"
				}

			}
, 			{
				"box" : 				{
					"id" : "obj-3",
					"maxclass" : "newobj",
					"numinlets" : 1,
					"numoutlets" : 2,
					"outlettype" : [ "", "" ],
					"patching_rect" : [ 39.083374, 337.166656, 92.0, 22.0 ],
					"style" : "",
					"text" : "patcherargs 1"
				}

			}
, 			{
				"box" : 				{
					"fontsize" : 36.958813,
					"id" : "obj-1",
					"maxclass" : "comment",
					"numinlets" : 1,
					"numoutlets" : 0,
					"patching_rect" : [ 557.333374, 517.266663, 88.0, 48.0 ],
					"presentation" : 1,
					"presentation_rect" : [ -14.03334, 20.100006, 58.700012, 48.0 ],
					"style" : "",
					"text" : "fl",
					"textjustification" : 2
				}

			}
, 			{
				"box" : 				{
					"id" : "obj-355",
					"linecount" : 2,
					"maxclass" : "comment",
					"numinlets" : 1,
					"numoutlets" : 0,
					"patching_rect" : [ 93.333374, 533.43335, 38.0, 33.0 ],
					"presentation" : 1,
					"presentation_rect" : [ 247.733337, 16.999996, 49.0, 20.0 ],
					"style" : "",
					"text" : "instrset",
					"textjustification" : 1
				}

			}
, 			{
				"box" : 				{
					"fontsize" : 12.0,
					"id" : "obj-352",
					"maxclass" : "comment",
					"numinlets" : 1,
					"numoutlets" : 0,
					"patching_rect" : [ 316.75528, 75.166656, 54.0, 20.0 ],
					"presentation" : 1,
					"presentation_rect" : [ 260.0, 49.100006, 45.0, 20.0 ],
					"style" : "",
					"text" : "t12",
					"textjustification" : 1
				}

			}
, 			{
				"box" : 				{
					"fontsize" : 12.0,
					"id" : "obj-353",
					"maxclass" : "comment",
					"numinlets" : 1,
					"numoutlets" : 0,
					"patching_rect" : [ 34.877075, 129.166656, 44.0, 20.0 ],
					"presentation" : 1,
					"presentation_rect" : [ 53.700012, 45.180008, 44.0, 20.0 ],
					"style" : "",
					"text" : "m1var",
					"textcolor" : [ 0.572549, 0.27451, 0.027451, 1.0 ],
					"textjustification" : 1
				}

			}
, 			{
				"box" : 				{
					"fontsize" : 12.0,
					"id" : "obj-354",
					"maxclass" : "comment",
					"numinlets" : 1,
					"numoutlets" : 0,
					"patching_rect" : [ 40.076782, 75.166656, 45.0, 20.0 ],
					"presentation" : 1,
					"presentation_rect" : [ 53.700012, 5.600006, 45.0, 20.0 ],
					"style" : "",
					"text" : "m1",
					"textjustification" : 1
				}

			}
, 			{
				"box" : 				{
					"fontsize" : 12.0,
					"id" : "obj-349",
					"maxclass" : "number",
					"maximum" : 4,
					"minimum" : 1,
					"numinlets" : 1,
					"numoutlets" : 2,
					"outlettype" : [ "", "bang" ],
					"parameter_enable" : 0,
					"patching_rect" : [ 39.083374, 533.43335, 46.0, 22.0 ],
					"style" : ""
				}

			}
, 			{
				"box" : 				{
					"fontsize" : 12.0,
					"htricolor" : [ 0.952941, 0.564706, 0.098039, 1.0 ],
					"id" : "obj-326",
					"maxclass" : "number",
					"maximum" : 19,
					"minimum" : 1,
					"numinlets" : 1,
					"numoutlets" : 2,
					"outlettype" : [ "", "bang" ],
					"parameter_enable" : 0,
					"patching_rect" : [ 29.977478, 156.766663, 46.0, 22.0 ],
					"presentation" : 1,
					"presentation_rect" : [ 58.700012, 61.350006, 32.0, 22.0 ],
					"style" : "",
					"textcolor" : [ 0.992435, 0.625528, 0.214662, 1.0 ],
					"tricolor" : [ 0.572549, 0.27451, 0.027451, 1.0 ],
					"varname" : "m1var"
				}

			}
, 			{
				"box" : 				{
					"fontsize" : 12.0,
					"id" : "obj-327",
					"maxclass" : "number",
					"maximum" : 19,
					"minimum" : 1,
					"numinlets" : 1,
					"numoutlets" : 2,
					"outlettype" : [ "", "bang" ],
					"parameter_enable" : 0,
					"patching_rect" : [ 34.877075, 102.766663, 46.0, 22.0 ],
					"presentation" : 1,
					"presentation_rect" : [ 58.700012, 23.100006, 32.0, 22.0 ],
					"style" : "",
					"varname" : "m1"
				}

			}
, 			{
				"box" : 				{
					"id" : "obj-22",
					"maxclass" : "message",
					"numinlets" : 2,
					"numoutlets" : 1,
					"outlettype" : [ "" ],
					"patching_rect" : [ 137.466553, 533.43335, 39.0, 22.0 ],
					"style" : "",
					"text" : "clear"
				}

			}
, 			{
				"box" : 				{
					"angle" : 270.0,
					"bgcolor" : [ 0.317647, 0.654902, 0.976471, 0.15 ],
					"border" : 1,
					"bordercolor" : [ 0.317647, 0.654902, 0.976471, 1.0 ],
					"id" : "obj-20",
					"maxclass" : "panel",
					"mode" : 0,
					"numinlets" : 1,
					"numoutlets" : 0,
					"patching_rect" : [ 122.66667, 168.000005, 128.0, 128.0 ],
					"presentation" : 1,
					"presentation_rect" : [ 52.200012, 5.600006, 47.5, 84.25 ],
					"proportion" : 0.39,
					"style" : ""
				}

			}
, 			{
				"box" : 				{
					"angle" : 270.0,
					"bgcolor" : [ 0.92549, 0.364706, 0.341176, 0.15 ],
					"border" : 1,
					"bordercolor" : [ 0.92549, 0.364706, 0.341176, 1.0 ],
					"id" : "obj-23",
					"maxclass" : "panel",
					"mode" : 0,
					"numinlets" : 1,
					"numoutlets" : 0,
					"patching_rect" : [ 136.366684, 116.666664, 128.0, 128.0 ],
					"presentation" : 1,
					"presentation_rect" : [ 178.650024, 5.999987, 50.0, 84.25 ],
					"proportion" : 0.39,
					"style" : ""
				}

			}
, 			{
				"box" : 				{
					"background" : 1,
					"bgcolor" : [ 0.176471, 0.196078, 0.180392, 0.0 ],
					"elementcolor" : [ 0.92549, 0.364706, 0.341176, 1.0 ],
					"floatoutput" : 1,
					"id" : "obj-71",
					"ignoreclick" : 1,
					"knobcolor" : [ 0.317647, 0.654902, 0.976471, 1.0 ],
					"knobshape" : 4,
					"maxclass" : "slider",
					"numinlets" : 1,
					"numoutlets" : 1,
					"orientation" : 1,
					"outlettype" : [ "" ],
					"parameter_enable" : 0,
					"patching_rect" : [ 174.310852, 162.466644, 51.0, 13.600037 ],
					"presentation" : 1,
					"presentation_rect" : [ 110.900024, 8.999987, 55.0, 18.5 ],
					"size" : 1.0,
					"style" : ""
				}

			}
 ],
		"lines" : [ 			{
				"patchline" : 				{
					"destination" : [ "obj-1", 0 ],
					"source" : [ "obj-12", 0 ]
				}

			}
, 			{
				"patchline" : 				{
					"destination" : [ "obj-31", 0 ],
					"source" : [ "obj-21", 1 ]
				}

			}
, 			{
				"patchline" : 				{
					"destination" : [ "obj-43", 0 ],
					"source" : [ "obj-21", 0 ]
				}

			}
, 			{
				"patchline" : 				{
					"destination" : [ "obj-21", 0 ],
					"source" : [ "obj-22", 0 ]
				}

			}
, 			{
				"patchline" : 				{
					"destination" : [ "obj-42", 0 ],
					"source" : [ "obj-24", 0 ]
				}

			}
, 			{
				"patchline" : 				{
					"destination" : [ "obj-21", 0 ],
					"source" : [ "obj-29", 0 ]
				}

			}
, 			{
				"patchline" : 				{
					"destination" : [ "obj-5", 0 ],
					"source" : [ "obj-3", 0 ]
				}

			}
, 			{
				"patchline" : 				{
					"destination" : [ "obj-44", 0 ],
					"source" : [ "obj-30", 0 ]
				}

			}
, 			{
				"patchline" : 				{
					"destination" : [ "obj-37", 0 ],
					"midpoints" : [ 272.833374, 650.59998, 523.500036, 650.59998, 523.500036, 457.59998, 298.166626, 457.59998 ],
					"source" : [ "obj-31", 0 ]
				}

			}
, 			{
				"patchline" : 				{
					"destination" : [ "obj-30", 0 ],
					"source" : [ "obj-349", 0 ]
				}

			}
, 			{
				"patchline" : 				{
					"destination" : [ "obj-21", 0 ],
					"midpoints" : [ 298.166626, 578.216639, 227.833374, 578.216639 ],
					"source" : [ "obj-36", 0 ]
				}

			}
, 			{
				"patchline" : 				{
					"destination" : [ "obj-38", 0 ],
					"source" : [ "obj-37", 0 ]
				}

			}
, 			{
				"patchline" : 				{
					"destination" : [ "obj-36", 0 ],
					"source" : [ "obj-38", 0 ]
				}

			}
, 			{
				"patchline" : 				{
					"destination" : [ "obj-40", 0 ],
					"source" : [ "obj-39", 0 ]
				}

			}
, 			{
				"patchline" : 				{
					"destination" : [ "obj-12", 0 ],
					"source" : [ "obj-4", 0 ]
				}

			}
, 			{
				"patchline" : 				{
					"destination" : [ "obj-22", 0 ],
					"source" : [ "obj-42", 1 ]
				}

			}
, 			{
				"patchline" : 				{
					"destination" : [ "obj-349", 0 ],
					"source" : [ "obj-42", 0 ]
				}

			}
, 			{
				"patchline" : 				{
					"destination" : [ "obj-29", 0 ],
					"midpoints" : [ 227.833374, 644.59998, 198.833368, 644.59998, 198.833368, 545.59998, 227.833374, 545.59998 ],
					"source" : [ "obj-43", 0 ]
				}

			}
, 			{
				"patchline" : 				{
					"destination" : [ "obj-37", 0 ],
					"midpoints" : [ 48.833374, 651.333297, 524.666745, 651.333297, 524.666745, 457.266641, 298.166626, 457.266641 ],
					"source" : [ "obj-44", 0 ]
				}

			}
, 			{
				"patchline" : 				{
					"destination" : [ "obj-39", 0 ],
					"source" : [ "obj-48", 0 ]
				}

			}
, 			{
				"patchline" : 				{
					"destination" : [ "obj-24", 0 ],
					"source" : [ "obj-5", 0 ]
				}

			}
, 			{
				"patchline" : 				{
					"destination" : [ "obj-6", 0 ],
					"source" : [ "obj-5", 1 ]
				}

			}
, 			{
				"patchline" : 				{
					"destination" : [ "obj-4", 0 ],
					"source" : [ "obj-6", 0 ]
				}

			}
, 			{
				"patchline" : 				{
					"destination" : [ "obj-71", 0 ],
					"source" : [ "obj-60", 0 ]
				}

			}
, 			{
				"patchline" : 				{
					"destination" : [ "obj-48", 0 ],
					"source" : [ "obj-7", 0 ]
				}

			}
, 			{
				"patchline" : 				{
					"destination" : [ "obj-24", 0 ],
					"source" : [ "obj-9", 0 ]
				}

			}
 ],
		"styles" : [ 			{
				"name" : "ak.bigger",
				"default" : 				{
					"fontname" : [ "Lato" ],
					"bgfillcolor" : 					{
						"type" : "gradient",
						"color" : [ 0.290196, 0.309804, 0.301961, 1.0 ],
						"color1" : [ 0.580992, 0.600466, 0.396627, 1.0 ],
						"color2" : [ 0.326279, 0.337174, 0.223978, 1.0 ],
						"angle" : 277.842322,
						"proportion" : 0.484956,
						"autogradient" : 0,
						"pt1" : [ 0.485149, 0.026087 ],
						"pt2" : [ 0.559406, 0.565217 ]
					}
,
					"selectioncolor" : [ 0.532195, 0.84546, 0.169658, 1.0 ],
					"color" : [ 0.860949, 0.86278, 0.710083, 1.0 ],
					"textcolor_inverse" : [ 0.959262, 0.956712, 0.966038, 1.0 ],
					"fontsize" : [ 14.0 ],
					"elementcolor" : [ 0.402827, 0.442342, 0.446734, 1.0 ]
				}
,
				"parentstyle" : "",
				"multi" : 0
			}
, 			{
				"name" : "zielony",
				"default" : 				{
					"fontname" : [ "Lato Regular" ],
					"bgfillcolor" : 					{
						"type" : "color",
						"color" : [ 0.067387, 0.339963, 0.132708, 1.0 ],
						"color1" : [ 0.0, 0.501961, 0.25098, 1.0 ],
						"color2" : [ 0.019608, 0.254902, 0.035294, 1.0 ],
						"angle" : 268.517703,
						"proportion" : 0.525821,
						"autogradient" : 0,
						"pt1" : [ 0.490099, 0.478261 ],
						"pt2" : [ 0.475248, 1.052174 ]
					}
,
					"textcolor" : [ 0.0, 0.533333, 0.168627, 1.0 ],
					"selectioncolor" : [ 0.528927, 1.0, 0.272898, 1.0 ],
					"bgcolor" : [ 0.178182, 0.194235, 0.179854, 1.0 ],
					"color" : [ 0.4, 1.0, 0.4, 1.0 ],
					"textjustification" : [ 0 ],
					"textcolor_inverse" : [ 0.528927, 1.0, 0.272898, 1.0 ],
					"patchlinecolor" : [ 0.439216, 0.74902, 0.254902, 0.9 ],
					"fontface" : [ 0 ],
					"fontsize" : [ 14.0 ],
					"accentcolor" : [ 0.086281, 0.464155, 0.176596, 1.0 ],
					"elementcolor" : [ 0.03764, 0.288409, 0.132402, 1.0 ]
				}
,
				"parentstyle" : "",
				"multi" : 0
			}
 ],
		"toolbarexclusions" : [ "lessonbrowser", "browser_objects", "packagemanager", "omnibrowser", "object_menu", "message_menu", "comment" ]
	}

}
