{
	"patcher" : 	{
		"fileversion" : 1,
		"appversion" : 		{
			"major" : 7,
			"minor" : 3,
			"revision" : 5,
			"architecture" : "x64",
			"modernui" : 1
		}
,
		"rect" : [ 295.0, 114.0, 770.0, 435.0 ],
		"bgcolor" : [ 0.878431, 0.878431, 0.858824, 1.0 ],
		"editing_bgcolor" : [ 0.878431, 0.878431, 0.858824, 1.0 ],
		"bglocked" : 0,
		"openinpresentation" : 1,
		"default_fontsize" : 12.0,
		"default_fontface" : 0,
		"default_fontname" : "Arial",
		"gridonopen" : 2,
		"gridsize" : [ 20.0, 20.0 ],
		"gridsnaponopen" : 1,
		"objectsnaponopen" : 1,
		"statusbarvisible" : 2,
		"toolbarvisible" : 1,
		"lefttoolbarpinned" : 0,
		"toptoolbarpinned" : 0,
		"righttoolbarpinned" : 0,
		"bottomtoolbarpinned" : 0,
		"toolbars_unpinned_last_save" : 0,
		"tallnewobj" : 0,
		"boxanimatetime" : 200,
		"enablehscroll" : 1,
		"enablevscroll" : 1,
		"devicewidth" : 0.0,
		"description" : "",
		"digest" : "",
		"tags" : "",
		"style" : "default",
		"subpatcher_template" : "Green on Black",
		"globalpatchername" : "gen_rand",
		"boxes" : [ 			{
				"box" : 				{
					"id" : "obj-10",
					"maxclass" : "comment",
					"numinlets" : 1,
					"numoutlets" : 0,
					"patching_rect" : [ 337.0, 18.0, 59.0, 20.0 ],
					"style" : "",
					"text" : "playback",
					"textjustification" : 1
				}

			}
, 			{
				"box" : 				{
					"id" : "obj-9",
					"maxclass" : "comment",
					"numinlets" : 1,
					"numoutlets" : 0,
					"patching_rect" : [ 9.0, 157.5, 57.0, 20.0 ],
					"presentation" : 1,
					"presentation_rect" : [ 596.5, 373.5, 57.0, 20.0 ],
					"style" : "",
					"text" : "generate",
					"textjustification" : 1
				}

			}
, 			{
				"box" : 				{
					"bgcolor" : [ 0.0, 0.501961, 0.25098, 1.0 ],
					"bgcolor2" : [ 0.0, 0.501961, 0.25098, 1.0 ],
					"bgfillcolor_angle" : 268.517703,
					"bgfillcolor_autogradient" : 0.0,
					"bgfillcolor_color" : [ 0.341176, 0.027451, 0.023529, 1.0 ],
					"bgfillcolor_color1" : [ 0.0, 0.501961, 0.25098, 1.0 ],
					"bgfillcolor_color2" : [ 0.019608, 0.254902, 0.035294, 1.0 ],
					"bgfillcolor_proportion" : 0.525821,
					"bgfillcolor_type" : "color",
					"gradient" : 1,
					"id" : "obj-7",
					"maxclass" : "message",
					"numinlets" : 2,
					"numoutlets" : 1,
					"outlettype" : [ "" ],
					"patching_rect" : [ 296.0, 18.0, 37.0, 22.0 ],
					"style" : "",
					"text" : "stop",
					"textcolor" : [ 0.92549, 0.364706, 0.341176, 1.0 ],
					"textjustification" : 1
				}

			}
, 			{
				"box" : 				{
					"bgcolor" : [ 0.0, 0.501961, 0.25098, 1.0 ],
					"bgcolor2" : [ 0.0, 0.501961, 0.25098, 1.0 ],
					"bgfillcolor_angle" : 268.517703,
					"bgfillcolor_autogradient" : 0.0,
					"bgfillcolor_color" : [ 0.086275, 0.309804, 0.52549, 1.0 ],
					"bgfillcolor_color1" : [ 0.0, 0.501961, 0.25098, 1.0 ],
					"bgfillcolor_color2" : [ 0.019608, 0.254902, 0.035294, 1.0 ],
					"bgfillcolor_proportion" : 0.525821,
					"bgfillcolor_type" : "color",
					"gradient" : 1,
					"id" : "obj-6",
					"maxclass" : "message",
					"numinlets" : 2,
					"numoutlets" : 1,
					"outlettype" : [ "" ],
					"patching_rect" : [ 248.0, 18.0, 36.0, 22.0 ],
					"style" : "",
					"text" : "play",
					"textcolor" : [ 0.317647, 0.654902, 0.976471, 1.0 ],
					"textjustification" : 1
				}

			}
, 			{
				"box" : 				{
					"id" : "obj-22",
					"maxclass" : "button",
					"numinlets" : 1,
					"numoutlets" : 1,
					"outlettype" : [ "bang" ],
					"patching_rect" : [ 61.0, 144.0, 50.0, 50.0 ],
					"presentation" : 1,
					"presentation_rect" : [ 582.5, 286.5, 85.0, 85.0 ],
					"style" : ""
				}

			}
, 			{
				"box" : 				{
					"bgcolor" : [ 0.376187, 0.409384, 0.445165, 1.0 ],
					"bgmode" : 1,
					"border" : 1,
					"clickthrough" : 0,
					"enablehscroll" : 0,
					"enablevscroll" : 0,
					"id" : "obj-5",
					"lockeddragscroll" : 0,
					"maxclass" : "bpatcher",
					"name" : "pattr-helper.maxpat",
					"numinlets" : 1,
					"numoutlets" : 1,
					"offset" : [ -11.0, -7.0 ],
					"outlettype" : [ "" ],
					"patching_rect" : [ 166.0, 144.0, 269.0, 85.0 ],
					"presentation" : 1,
					"presentation_rect" : [ 495.25, 161.0, 259.5, 85.0 ],
					"viewvisibility" : 1
				}

			}
, 			{
				"box" : 				{
					"angle" : 270.0,
					"bgcolor" : [ 0.878431, 0.878431, 0.858824, 1.0 ],
					"border" : 1,
					"bordercolor" : [ 0.101961, 0.121569, 0.172549, 1.0 ],
					"id" : "obj-4",
					"maxclass" : "panel",
					"mode" : 0,
					"numinlets" : 1,
					"numoutlets" : 0,
					"patching_rect" : [ 644.0, 518.0, 128.0, 128.0 ],
					"presentation" : 1,
					"presentation_rect" : [ 490.0, 116.0, 270.0, 309.0 ],
					"proportion" : 0.39,
					"rounded" : 0,
					"style" : ""
				}

			}
, 			{
				"box" : 				{
					"id" : "obj-19",
					"maxclass" : "button",
					"numinlets" : 1,
					"numoutlets" : 1,
					"outlettype" : [ "bang" ],
					"patching_rect" : [ 380.0, 263.0, 24.0, 24.0 ],
					"style" : ""
				}

			}
, 			{
				"box" : 				{
					"id" : "obj-17",
					"maxclass" : "newobj",
					"numinlets" : 1,
					"numoutlets" : 2,
					"outlettype" : [ "", "clear" ],
					"patching_rect" : [ 380.0, 306.0, 112.0, 22.0 ],
					"style" : "",
					"text" : "t getslotlist clear"
				}

			}
, 			{
				"box" : 				{
					"id" : "obj-16",
					"maxclass" : "newobj",
					"numinlets" : 1,
					"numoutlets" : 1,
					"outlettype" : [ "" ],
					"patching_rect" : [ 236.5, 427.0, 111.0, 22.0 ],
					"style" : "",
					"text" : "prepend append"
				}

			}
, 			{
				"box" : 				{
					"id" : "obj-15",
					"maxclass" : "newobj",
					"numinlets" : 1,
					"numoutlets" : 1,
					"outlettype" : [ "" ],
					"patching_rect" : [ 236.5, 392.0, 31.0, 22.0 ],
					"style" : "",
					"text" : "iter"
				}

			}
, 			{
				"box" : 				{
					"id" : "obj-14",
					"items" : [ 1, ",", 2, ",", 3, ",", 4, ",", 5, ",", 6, ",", 7, ",", 8, ",", 9, ",", 10, ",", 11, ",", 110, ",", 120, ",", 130, ",", 140, ",", 210, ",", 220, ",", 230, ",", 240, ",", 250, ",", 260, ",", 320, ",", 330, ",", 340, ",", 350, ",", 360, ",", 410, ",", 420, ",", 421, ",", 430, ",", 431, ",", 432, ",", 433, ",", 440, ",", 441, ",", 442 ],
					"maxclass" : "umenu",
					"numinlets" : 1,
					"numoutlets" : 3,
					"outlettype" : [ "int", "", "" ],
					"parameter_enable" : 0,
					"patching_rect" : [ 236.5, 469.5, 100.0, 22.0 ],
					"style" : ""
				}

			}
, 			{
				"box" : 				{
					"id" : "obj-13",
					"maxclass" : "newobj",
					"numinlets" : 2,
					"numoutlets" : 2,
					"outlettype" : [ "", "" ],
					"patching_rect" : [ 236.5, 353.5, 87.0, 22.0 ],
					"style" : "",
					"text" : "route slotlist"
				}

			}
, 			{
				"box" : 				{
					"id" : "obj-12",
					"maxclass" : "newobj",
					"numinlets" : 1,
					"numoutlets" : 2,
					"outlettype" : [ "bang", "" ],
					"patching_rect" : [ 61.0, 63.0, 124.0, 22.0 ],
					"style" : "",
					"text" : "t b l"
				}

			}
, 			{
				"box" : 				{
					"id" : "obj-11",
					"maxclass" : "newobj",
					"numinlets" : 2,
					"numoutlets" : 2,
					"outlettype" : [ "", "" ],
					"patching_rect" : [ 166.0, 103.0, 63.0, 22.0 ],
					"style" : "",
					"text" : "route int"
				}

			}
, 			{
				"box" : 				{
					"id" : "obj-3",
					"maxclass" : "newobj",
					"numinlets" : 1,
					"numoutlets" : 1,
					"outlettype" : [ "" ],
					"patching_rect" : [ 248.0, 63.0, 227.0, 22.0 ],
					"style" : "",
					"text" : "pattrforward parent::preview::score"
				}

			}
, 			{
				"box" : 				{
					"comment" : "",
					"id" : "obj-48",
					"index" : 1,
					"maxclass" : "inlet",
					"numinlets" : 0,
					"numoutlets" : 1,
					"outlettype" : [ "" ],
					"patching_rect" : [ 61.0, 9.0, 30.0, 30.0 ],
					"style" : ""
				}

			}
, 			{
				"box" : 				{
					"comment" : "",
					"id" : "obj-47",
					"index" : 1,
					"maxclass" : "outlet",
					"numinlets" : 1,
					"numoutlets" : 0,
					"patching_rect" : [ 61.0, 415.0, 30.0, 30.0 ],
					"style" : ""
				}

			}
, 			{
				"box" : 				{
					"id" : "obj-46",
					"maxclass" : "newobj",
					"numinlets" : 1,
					"numoutlets" : 3,
					"outlettype" : [ "bang", "bang", "clear" ],
					"patching_rect" : [ 61.0, 225.25, 71.0, 22.0 ],
					"style" : "",
					"text" : "t b b clear"
				}

			}
, 			{
				"box" : 				{
					"id" : "obj-45",
					"maxclass" : "newobj",
					"numinlets" : 1,
					"numoutlets" : 1,
					"outlettype" : [ "" ],
					"patching_rect" : [ 332.0, 103.0, 143.0, 22.0 ],
					"style" : "",
					"text" : "pattrmarker gen_rand"
				}

			}
, 			{
				"box" : 				{
					"id" : "obj-39",
					"maxclass" : "newobj",
					"numinlets" : 1,
					"numoutlets" : 1,
					"outlettype" : [ "" ],
					"patching_rect" : [ 87.0, 324.0, 109.0, 22.0 ],
					"style" : "",
					"text" : "prepend replace"
				}

			}
, 			{
				"box" : 				{
					"id" : "obj-37",
					"maxclass" : "newobj",
					"numinlets" : 2,
					"numoutlets" : 4,
					"outlettype" : [ "dictionary", "", "", "" ],
					"patching_rect" : [ 61.0, 364.0, 50.5, 22.0 ],
					"saved_object_attributes" : 					{
						"embed" : 0,
						"parameter_enable" : 0
					}
,
					"style" : "",
					"text" : "dict"
				}

			}
, 			{
				"box" : 				{
					"args" : [ 4 ],
					"bgcolor" : [ 0.095481, 0.100396, 0.100293, 1.0 ],
					"bgmode" : 1,
					"border" : 1,
					"clickthrough" : 0,
					"enablehscroll" : 0,
					"enablevscroll" : 0,
					"id" : "obj-31",
					"lockeddragscroll" : 0,
					"maxclass" : "bpatcher",
					"name" : "sysX.phrasebook.gen_rand.instr_params.maxpat",
					"numinlets" : 0,
					"numoutlets" : 0,
					"offset" : [ 0.0, 1.0 ],
					"patching_rect" : [ 514.0, 400.5, 659.0, 97.5 ],
					"presentation" : 1,
					"presentation_rect" : [ 9.0, 327.0, 751.0, 98.0 ],
					"varname" : "vc",
					"viewvisibility" : 1
				}

			}
, 			{
				"box" : 				{
					"args" : [ 3 ],
					"bgcolor" : [ 0.095481, 0.100396, 0.100293, 1.0 ],
					"bgmode" : 1,
					"border" : 1,
					"clickthrough" : 0,
					"enablehscroll" : 0,
					"enablevscroll" : 0,
					"id" : "obj-30",
					"lockeddragscroll" : 0,
					"maxclass" : "bpatcher",
					"name" : "sysX.phrasebook.gen_rand.instr_params.maxpat",
					"numinlets" : 0,
					"numoutlets" : 0,
					"offset" : [ 0.0, 1.0 ],
					"patching_rect" : [ 514.0, 279.5, 659.0, 97.5 ],
					"presentation" : 1,
					"presentation_rect" : [ 9.0, 222.0, 751.0, 98.0 ],
					"varname" : "vn",
					"viewvisibility" : 1
				}

			}
, 			{
				"box" : 				{
					"args" : [ 2 ],
					"bgcolor" : [ 0.095481, 0.100396, 0.100293, 1.0 ],
					"bgmode" : 1,
					"border" : 1,
					"clickthrough" : 0,
					"enablehscroll" : 0,
					"enablevscroll" : 0,
					"id" : "obj-29",
					"lockeddragscroll" : 0,
					"maxclass" : "bpatcher",
					"name" : "sysX.phrasebook.gen_rand.instr_params.maxpat",
					"numinlets" : 0,
					"numoutlets" : 0,
					"offset" : [ 0.0, 2.0 ],
					"patching_rect" : [ 514.0, 154.5, 659.0, 97.5 ],
					"presentation" : 1,
					"presentation_rect" : [ 9.0, 116.0, 751.0, 98.0 ],
					"varname" : "cl",
					"viewvisibility" : 1
				}

			}
, 			{
				"box" : 				{
					"id" : "obj-28",
					"maxclass" : "newobj",
					"numinlets" : 2,
					"numoutlets" : 2,
					"outlettype" : [ "", "dump" ],
					"patcher" : 					{
						"fileversion" : 1,
						"appversion" : 						{
							"major" : 7,
							"minor" : 3,
							"revision" : 5,
							"architecture" : "x64",
							"modernui" : 1
						}
,
						"rect" : [ 59.0, 104.0, 374.0, 479.0 ],
						"bgcolor" : [ 0.0, 0.0, 0.0, 1.0 ],
						"editing_bgcolor" : [ 0.046123, 0.046121, 0.046122, 1.0 ],
						"bglocked" : 0,
						"openinpresentation" : 0,
						"default_fontsize" : 14.0,
						"default_fontface" : 0,
						"default_fontname" : "Lato Regular",
						"gridonopen" : 2,
						"gridsize" : [ 20.0, 20.0 ],
						"gridsnaponopen" : 1,
						"objectsnaponopen" : 1,
						"statusbarvisible" : 2,
						"toolbarvisible" : 1,
						"lefttoolbarpinned" : 0,
						"toptoolbarpinned" : 0,
						"righttoolbarpinned" : 0,
						"bottomtoolbarpinned" : 0,
						"toolbars_unpinned_last_save" : 0,
						"tallnewobj" : 0,
						"boxanimatetime" : 200,
						"enablehscroll" : 1,
						"enablevscroll" : 1,
						"devicewidth" : 0.0,
						"description" : "",
						"digest" : "",
						"tags" : "",
						"style" : "zielony",
						"subpatcher_template" : "Green on Black",
						"boxes" : [ 							{
								"box" : 								{
									"id" : "obj-3",
									"maxclass" : "comment",
									"numinlets" : 1,
									"numoutlets" : 0,
									"patching_rect" : [ 108.5, 401.0, 99.0, 23.0 ],
									"style" : "",
									"text" : "->pattrstorage",
									"textcolor" : [ 0.741176, 0.356863, 0.047059, 1.0 ]
								}

							}
, 							{
								"box" : 								{
									"id" : "obj-2",
									"maxclass" : "comment",
									"numinlets" : 1,
									"numoutlets" : 0,
									"patching_rect" : [ 114.5, 20.0, 99.0, 23.0 ],
									"style" : "",
									"text" : "pattrstorage->",
									"textcolor" : [ 0.741176, 0.356863, 0.047059, 1.0 ]
								}

							}
, 							{
								"box" : 								{
									"id" : "obj-23",
									"maxclass" : "newobj",
									"numinlets" : 2,
									"numoutlets" : 2,
									"outlettype" : [ "bang", "" ],
									"patching_rect" : [ 96.0, 229.25, 62.0, 25.0 ],
									"style" : "",
									"text" : "sel done"
								}

							}
, 							{
								"box" : 								{
									"id" : "obj-20",
									"maxclass" : "newobj",
									"numinlets" : 1,
									"numoutlets" : 1,
									"outlettype" : [ "int" ],
									"patching_rect" : [ 96.0, 278.25, 27.0, 25.0 ],
									"style" : "",
									"text" : "t 0"
								}

							}
, 							{
								"box" : 								{
									"id" : "obj-19",
									"maxclass" : "newobj",
									"numinlets" : 2,
									"numoutlets" : 2,
									"outlettype" : [ "", "" ],
									"patching_rect" : [ 96.0, 184.0, 87.5, 25.0 ],
									"style" : "",
									"text" : "route dump"
								}

							}
, 							{
								"box" : 								{
									"id" : "obj-18",
									"maxclass" : "newobj",
									"numinlets" : 2,
									"numoutlets" : 1,
									"outlettype" : [ "" ],
									"patching_rect" : [ 96.0, 141.0, 37.5, 25.0 ],
									"style" : "",
									"text" : "gate"
								}

							}
, 							{
								"box" : 								{
									"id" : "obj-17",
									"maxclass" : "newobj",
									"numinlets" : 1,
									"numoutlets" : 2,
									"outlettype" : [ "dump", "int" ],
									"patching_rect" : [ 49.0, 89.0, 66.0, 25.0 ],
									"style" : "",
									"text" : "t dump 1"
								}

							}
, 							{
								"box" : 								{
									"comment" : "",
									"id" : "obj-24",
									"index" : 2,
									"maxclass" : "inlet",
									"numinlets" : 0,
									"numoutlets" : 1,
									"outlettype" : [ "" ],
									"patching_rect" : [ 114.5, 45.0, 30.0, 30.0 ],
									"style" : "",
									"tricolor" : [ 0.952941, 0.564706, 0.098039, 1.0 ]
								}

							}
, 							{
								"box" : 								{
									"comment" : "",
									"id" : "obj-25",
									"index" : 1,
									"maxclass" : "inlet",
									"numinlets" : 0,
									"numoutlets" : 1,
									"outlettype" : [ "bang" ],
									"patching_rect" : [ 49.0, 45.0, 30.0, 30.0 ],
									"style" : ""
								}

							}
, 							{
								"box" : 								{
									"comment" : "",
									"id" : "obj-26",
									"index" : 1,
									"maxclass" : "outlet",
									"numinlets" : 1,
									"numoutlets" : 0,
									"patching_rect" : [ 49.0, 369.0, 30.0, 30.0 ],
									"style" : ""
								}

							}
, 							{
								"box" : 								{
									"comment" : "",
									"id" : "obj-27",
									"index" : 2,
									"maxclass" : "outlet",
									"numinlets" : 1,
									"numoutlets" : 0,
									"patching_rect" : [ 114.5, 369.0, 30.0, 30.0 ],
									"style" : "",
									"tricolor" : [ 0.952941, 0.564706, 0.098039, 1.0 ]
								}

							}
 ],
						"lines" : [ 							{
								"patchline" : 								{
									"destination" : [ "obj-18", 0 ],
									"source" : [ "obj-17", 1 ]
								}

							}
, 							{
								"patchline" : 								{
									"color" : [ 0.952941, 0.564706, 0.098039, 0.9 ],
									"destination" : [ "obj-27", 0 ],
									"midpoints" : [ 58.5, 327.5, 124.0, 327.5 ],
									"source" : [ "obj-17", 0 ]
								}

							}
, 							{
								"patchline" : 								{
									"destination" : [ "obj-19", 0 ],
									"source" : [ "obj-18", 0 ]
								}

							}
, 							{
								"patchline" : 								{
									"destination" : [ "obj-23", 0 ],
									"source" : [ "obj-19", 0 ]
								}

							}
, 							{
								"patchline" : 								{
									"destination" : [ "obj-26", 0 ],
									"midpoints" : [ 174.0, 340.625, 58.5, 340.625 ],
									"source" : [ "obj-19", 1 ]
								}

							}
, 							{
								"patchline" : 								{
									"destination" : [ "obj-18", 0 ],
									"midpoints" : [ 105.5, 313.25, 78.5, 313.25, 78.5, 130.0, 105.5, 130.0 ],
									"source" : [ "obj-20", 0 ]
								}

							}
, 							{
								"patchline" : 								{
									"destination" : [ "obj-20", 0 ],
									"source" : [ "obj-23", 0 ]
								}

							}
, 							{
								"patchline" : 								{
									"color" : [ 0.952941, 0.564706, 0.098039, 0.9 ],
									"destination" : [ "obj-18", 1 ],
									"source" : [ "obj-24", 0 ]
								}

							}
, 							{
								"patchline" : 								{
									"destination" : [ "obj-17", 0 ],
									"source" : [ "obj-25", 0 ]
								}

							}
 ],
						"styles" : [ 							{
								"name" : "ak.bigger",
								"default" : 								{
									"fontname" : [ "Lato" ],
									"bgfillcolor" : 									{
										"type" : "gradient",
										"color" : [ 0.290196, 0.309804, 0.301961, 1.0 ],
										"color1" : [ 0.580992, 0.600466, 0.396627, 1.0 ],
										"color2" : [ 0.326279, 0.337174, 0.223978, 1.0 ],
										"angle" : 277.842322,
										"proportion" : 0.484956,
										"autogradient" : 0,
										"pt1" : [ 0.485149, 0.026087 ],
										"pt2" : [ 0.559406, 0.565217 ]
									}
,
									"selectioncolor" : [ 0.532195, 0.84546, 0.169658, 1.0 ],
									"color" : [ 0.860949, 0.86278, 0.710083, 1.0 ],
									"textcolor_inverse" : [ 0.959262, 0.956712, 0.966038, 1.0 ],
									"fontsize" : [ 14.0 ],
									"elementcolor" : [ 0.402827, 0.442342, 0.446734, 1.0 ]
								}
,
								"parentstyle" : "",
								"multi" : 0
							}
, 							{
								"name" : "zielony",
								"default" : 								{
									"fontname" : [ "Lato Regular" ],
									"bgfillcolor" : 									{
										"type" : "color",
										"color" : [ 0.067387, 0.339963, 0.132708, 1.0 ],
										"color1" : [ 0.0, 0.501961, 0.25098, 1.0 ],
										"color2" : [ 0.019608, 0.254902, 0.035294, 1.0 ],
										"angle" : 268.517703,
										"proportion" : 0.525821,
										"autogradient" : 0,
										"pt1" : [ 0.490099, 0.478261 ],
										"pt2" : [ 0.475248, 1.052174 ]
									}
,
									"textcolor" : [ 0.0, 0.533333, 0.168627, 1.0 ],
									"selectioncolor" : [ 0.528927, 1.0, 0.272898, 1.0 ],
									"bgcolor" : [ 0.178182, 0.194235, 0.179854, 1.0 ],
									"color" : [ 0.4, 1.0, 0.4, 1.0 ],
									"textjustification" : [ 0 ],
									"textcolor_inverse" : [ 0.528927, 1.0, 0.272898, 1.0 ],
									"patchlinecolor" : [ 0.439216, 0.74902, 0.254902, 0.9 ],
									"fontface" : [ 0 ],
									"fontsize" : [ 14.0 ],
									"accentcolor" : [ 0.086281, 0.464155, 0.176596, 1.0 ],
									"elementcolor" : [ 0.03764, 0.288409, 0.132402, 1.0 ]
								}
,
								"parentstyle" : "",
								"multi" : 0
							}
 ],
						"toolbarexclusions" : [ "lessonbrowser", "browser_objects", "packagemanager", "omnibrowser", "object_menu", "message_menu", "comment" ]
					}
,
					"patching_rect" : [ 87.0, 282.5, 98.0, 22.0 ],
					"saved_object_attributes" : 					{
						"description" : "",
						"digest" : "",
						"globalpatchername" : "",
						"style" : "zielony",
						"tags" : ""
					}
,
					"style" : "",
					"text" : "p dump-pattrs"
				}

			}
, 			{
				"box" : 				{
					"autorestore" : "gen_rand.json",
					"id" : "obj-2",
					"interp" : 					{
						"fl::instr" : [ 0, 0.0 ],
						"fl::instrset" : [ 0, 0.0 ],
						"cl::text-art" : [ 0, 0.0 ],
						"cl::text-tempo" : [ 0, 0.0 ],
						"cl::instr" : [ 0, 0.0 ],
						"cl::instrset" : [ 0, 0.0 ],
						"vn::text-art" : [ 0, 0.0 ],
						"vn::text-tempo" : [ 0, 0.0 ],
						"vn::instr" : [ 0, 0.0 ],
						"vn::instrset" : [ 0, 0.0 ],
						"vc::text-art" : [ 0, 0.0 ],
						"vc::text-tempo" : [ 0, 0.0 ],
						"vc::instr" : [ 0, 0.0 ],
						"vc::instrset" : [ 0, 0.0 ]
					}
,
					"maxclass" : "newobj",
					"numinlets" : 1,
					"numoutlets" : 1,
					"outlettype" : [ "" ],
					"patching_rect" : [ 166.0, 248.5, 146.0, 22.0 ],
					"priority" : 					{
						"fl::instr" : 1,
						"fl::instrset" : 2,
						"cl::instrset" : 2,
						"vn::instrset" : 2,
						"vc::instrset" : 2
					}
,
					"saved_object_attributes" : 					{
						"client_rect" : [ 1189, 44, 1572, 406 ],
						"parameter_enable" : 0,
						"storage_rect" : [ 583, 69, 1034, 197 ]
					}
,
					"style" : "",
					"text" : "pattrstorage gen_rand",
					"varname" : "gen_rand"
				}

			}
, 			{
				"box" : 				{
					"args" : [ 1 ],
					"bgcolor" : [ 0.095481, 0.100396, 0.100293, 1.0 ],
					"bgmode" : 1,
					"border" : 1,
					"clickthrough" : 0,
					"enablehscroll" : 0,
					"enablevscroll" : 0,
					"id" : "obj-1",
					"lockeddragscroll" : 0,
					"maxclass" : "bpatcher",
					"name" : "sysX.phrasebook.gen_rand.instr_params.maxpat",
					"numinlets" : 0,
					"numoutlets" : 0,
					"offset" : [ 0.0, 1.0 ],
					"patching_rect" : [ 514.0, 30.5, 659.0, 97.5 ],
					"presentation" : 1,
					"presentation_rect" : [ 9.0, 10.0, 751.0, 98.0 ],
					"varname" : "fl",
					"viewvisibility" : 1
				}

			}
, 			{
				"box" : 				{
					"angle" : 124.928516,
					"background" : 1,
					"grad1" : [ 0.65098, 0.666667, 0.662745, 1.0 ],
					"grad2" : [ 0.862745, 0.870588, 0.878431, 1.0 ],
					"id" : "obj-32",
					"maxclass" : "panel",
					"mode" : 1,
					"numinlets" : 1,
					"numoutlets" : 0,
					"patching_rect" : [ 488.0, 18.0, 11.0, 522.0 ],
					"presentation" : 1,
					"presentation_rect" : [ 1.0, 2.0, 767.0, 432.0 ],
					"proportion" : 0.39,
					"pt1" : [ 0.727723, 0.904348 ],
					"pt2" : [ 0.272277, 0.252174 ],
					"style" : ""
				}

			}
 ],
		"lines" : [ 			{
				"patchline" : 				{
					"destination" : [ "obj-5", 0 ],
					"source" : [ "obj-11", 0 ]
				}

			}
, 			{
				"patchline" : 				{
					"destination" : [ "obj-11", 0 ],
					"source" : [ "obj-12", 1 ]
				}

			}
, 			{
				"patchline" : 				{
					"destination" : [ "obj-22", 0 ],
					"source" : [ "obj-12", 0 ]
				}

			}
, 			{
				"patchline" : 				{
					"destination" : [ "obj-15", 0 ],
					"source" : [ "obj-13", 0 ]
				}

			}
, 			{
				"patchline" : 				{
					"destination" : [ "obj-5", 0 ],
					"midpoints" : [ 286.5, 504.5, 448.0, 504.5, 448.0, 133.0, 175.5, 133.0 ],
					"source" : [ "obj-14", 1 ]
				}

			}
, 			{
				"patchline" : 				{
					"destination" : [ "obj-16", 0 ],
					"source" : [ "obj-15", 0 ]
				}

			}
, 			{
				"patchline" : 				{
					"destination" : [ "obj-14", 0 ],
					"source" : [ "obj-16", 0 ]
				}

			}
, 			{
				"patchline" : 				{
					"destination" : [ "obj-14", 0 ],
					"source" : [ "obj-17", 1 ]
				}

			}
, 			{
				"patchline" : 				{
					"destination" : [ "obj-2", 0 ],
					"source" : [ "obj-17", 0 ]
				}

			}
, 			{
				"patchline" : 				{
					"destination" : [ "obj-17", 0 ],
					"source" : [ "obj-19", 0 ]
				}

			}
, 			{
				"patchline" : 				{
					"destination" : [ "obj-13", 0 ],
					"order" : 0,
					"source" : [ "obj-2", 0 ]
				}

			}
, 			{
				"patchline" : 				{
					"destination" : [ "obj-28", 1 ],
					"order" : 1,
					"source" : [ "obj-2", 0 ]
				}

			}
, 			{
				"patchline" : 				{
					"destination" : [ "obj-46", 0 ],
					"source" : [ "obj-22", 0 ]
				}

			}
, 			{
				"patchline" : 				{
					"destination" : [ "obj-2", 0 ],
					"midpoints" : [ 175.5, 310.5, 323.5, 310.5, 323.5, 243.5, 175.5, 243.5 ],
					"source" : [ "obj-28", 1 ]
				}

			}
, 			{
				"patchline" : 				{
					"destination" : [ "obj-39", 0 ],
					"source" : [ "obj-28", 0 ]
				}

			}
, 			{
				"patchline" : 				{
					"destination" : [ "obj-47", 0 ],
					"source" : [ "obj-37", 0 ]
				}

			}
, 			{
				"patchline" : 				{
					"destination" : [ "obj-37", 0 ],
					"source" : [ "obj-39", 0 ]
				}

			}
, 			{
				"patchline" : 				{
					"destination" : [ "obj-28", 0 ],
					"source" : [ "obj-46", 1 ]
				}

			}
, 			{
				"patchline" : 				{
					"destination" : [ "obj-37", 0 ],
					"midpoints" : [ 122.5, 263.125, 70.5, 263.125 ],
					"source" : [ "obj-46", 2 ]
				}

			}
, 			{
				"patchline" : 				{
					"destination" : [ "obj-37", 0 ],
					"source" : [ "obj-46", 0 ]
				}

			}
, 			{
				"patchline" : 				{
					"destination" : [ "obj-12", 0 ],
					"source" : [ "obj-48", 0 ]
				}

			}
, 			{
				"patchline" : 				{
					"destination" : [ "obj-2", 0 ],
					"source" : [ "obj-5", 0 ]
				}

			}
, 			{
				"patchline" : 				{
					"destination" : [ "obj-3", 0 ],
					"source" : [ "obj-6", 0 ]
				}

			}
, 			{
				"patchline" : 				{
					"destination" : [ "obj-3", 0 ],
					"source" : [ "obj-7", 0 ]
				}

			}
 ],
		"styles" : [ 			{
				"name" : "ak.bigger",
				"default" : 				{
					"fontname" : [ "Lato" ],
					"bgfillcolor" : 					{
						"type" : "gradient",
						"color" : [ 0.290196, 0.309804, 0.301961, 1.0 ],
						"color1" : [ 0.580992, 0.600466, 0.396627, 1.0 ],
						"color2" : [ 0.326279, 0.337174, 0.223978, 1.0 ],
						"angle" : 277.842322,
						"proportion" : 0.484956,
						"autogradient" : 0,
						"pt1" : [ 0.485149, 0.026087 ],
						"pt2" : [ 0.559406, 0.565217 ]
					}
,
					"selectioncolor" : [ 0.532195, 0.84546, 0.169658, 1.0 ],
					"color" : [ 0.860949, 0.86278, 0.710083, 1.0 ],
					"textcolor_inverse" : [ 0.959262, 0.956712, 0.966038, 1.0 ],
					"fontsize" : [ 14.0 ],
					"elementcolor" : [ 0.402827, 0.442342, 0.446734, 1.0 ]
				}
,
				"parentstyle" : "",
				"multi" : 0
			}
, 			{
				"name" : "zielony",
				"default" : 				{
					"fontname" : [ "Lato Regular" ],
					"bgfillcolor" : 					{
						"type" : "color",
						"color" : [ 0.067387, 0.339963, 0.132708, 1.0 ],
						"color1" : [ 0.0, 0.501961, 0.25098, 1.0 ],
						"color2" : [ 0.019608, 0.254902, 0.035294, 1.0 ],
						"angle" : 268.517703,
						"proportion" : 0.525821,
						"autogradient" : 0,
						"pt1" : [ 0.490099, 0.478261 ],
						"pt2" : [ 0.475248, 1.052174 ]
					}
,
					"textcolor" : [ 0.0, 0.533333, 0.168627, 1.0 ],
					"selectioncolor" : [ 0.528927, 1.0, 0.272898, 1.0 ],
					"bgcolor" : [ 0.178182, 0.194235, 0.179854, 1.0 ],
					"color" : [ 0.4, 1.0, 0.4, 1.0 ],
					"textjustification" : [ 0 ],
					"textcolor_inverse" : [ 0.528927, 1.0, 0.272898, 1.0 ],
					"patchlinecolor" : [ 0.439216, 0.74902, 0.254902, 0.9 ],
					"fontface" : [ 0 ],
					"fontsize" : [ 14.0 ],
					"accentcolor" : [ 0.086281, 0.464155, 0.176596, 1.0 ],
					"elementcolor" : [ 0.03764, 0.288409, 0.132402, 1.0 ]
				}
,
				"parentstyle" : "",
				"multi" : 0
			}
 ],
		"toolbarexclusions" : [ "lessonbrowser", "browser_objects", "packagemanager", "omnibrowser", "object_menu", "message_menu", "comment" ]
	}

}
